<?xml version="1.0" encoding="utf-8"?>
<!-- Generator: Adobe Illustrator 24.0.1, SVG Export Plug-In . SVG Version: 6.00 Build 0)  -->
<svg version="1.1" id="Layer_1" xmlns="http://www.w3.org/2000/svg" xmlns:xlink="http://www.w3.org/1999/xlink" x="0px" y="0px"
	 viewBox="0 0 49 59.8" style="enable-background:new 0 0 49 59.8;" xml:space="preserve">
<style type="text/css">
	.st0{fill:#FFFFFF;}
</style>
<g>
	<g>
		<path class="st0" d="M48.9,28.6C48.3,16,38,5.9,25.4,5.4C11.5,4.9,0,16,0,29.9c0,13.5,11,24.5,24.5,24.5c0.5,0,1.2,0,1.8-0.1
			c1.3-0.1,2-1.6,1.2-2.7c-0.3-0.5-0.9-0.8-1.5-0.8c-0.5,0-1,0.1-1.5,0.1c-12.1,0-21.9-10.3-21-22.6C4.3,18,12.6,9.7,22.9,8.9
			c12.3-0.9,22.6,8.8,22.6,21c0,3.4-0.8,6.6-2.3,9.5c-0.3,0.7-0.2,1.4,0.3,2c0.8,0.9,2.3,0.7,2.8-0.4C48.2,37.3,49.2,33,48.9,28.6z"
			/>
		<path class="st0" d="M35.5,14.5l-9.9,1.9L18.7,24l-2.5,0.3l0.9-6.2l-5.2,1l-0.3,0.1l0,0c0.1,1,0,2.1-0.2,3.2c0,0,0,0,0,0l0,0
			L9.8,32.8h0c0,0,0,0,0,0c-0.2,1.2-0.5,2.3-0.9,3.4l0,0l0.3,0l5.2,0.2l0.9-6.4l2.5-0.1L29,46.6c1.4,2.1,3.7,3.3,6.2,3.3h11
			l-22-23.4L35.5,14.5z"/>
	</g>
</g>
</svg>
